<svg width="512" height="512" viewBox="0 0 512 512" fill="none" xmlns="http://www.w3.org/2000/svg" xmlns:xlink="http://www.w3.org/1999/xlink" class=""><rect id="r4" width="512" height="512" x="0" y="0" rx="128" fill="url(#r5)" stroke="#FFFFFF" stroke-width="0" stroke-opacity="100%" paint-order="stroke"></rect><clipPath id="clip"><use xlink:href="#r4"></use></clipPath><defs><linearGradient id="r5" gradientUnits="userSpaceOnUse" gradientTransform="rotate(90)" style="transform-origin: center center;"><stop stop-color="#7317CF"></stop><stop offset="1" stop-color="#41ECC4"></stop></linearGradient><radialGradient id="r6" cx="0" cy="0" r="1" gradientUnits="userSpaceOnUse" gradientTransform="translate(256) rotate(90) scale(512)"><stop stop-color="white"></stop><stop offset="1" stop-color="white" stop-opacity="0"></stop></radialGradient></defs><svg xmlns="http://www.w3.org/2000/svg" width="450" height="450" viewBox="0 0 24 24" x="31" y="31" alignment-baseline="middle" style="color: rgb(255, 255, 255);"><path fill="currentColor" d="M6.087 9a5.752 5.752 0 0 1 11.326 0h.087a4 4 0 0 1 3.894 4.919l-1.407-1.406a1.571 1.571 0 0 0-.043-.043A2.5 2.5 0 0 0 17.5 10.5h-.756a.75.75 0 0 1-.75-.713a4.25 4.25 0 0 0-8.489 0a.75.75 0 0 1-.749.713H6a2.5 2.5 0 0 0 0 5h3.168a1.755 1.755 0 0 0 0 1.5H6a4 4 0 0 1 0-8h.087Zm7.693 5.28a.75.75 0 1 0-1.06-1.06l-2.5 2.5a.75.75 0 0 0 0 1.06l2.5 2.5a.75.75 0 1 0 1.06-1.06L12.56 17h6.88l-1.22 1.22a.75.75 0 1 0 1.06 1.06l2.5-2.5a.75.75 0 0 0 0-1.06l-2.5-2.5a.75.75 0 1 0-1.06 1.06l1.22 1.22h-6.88l1.22-1.22Z"></path></svg></svg>